<svg width="23" height="20" viewBox="0 0 23 23" fill="none" xmlns="http://www.w3.org/2000/svg">
<path d="M12.6228 2.875H8.62501C6.81795 2.875 5.91443 2.875 5.35305 3.43638C4.79167 3.99776 4.79167 4.90128 4.79167 6.70833V16.2917C4.79167 18.0987 4.79167 19.0022 5.35305 19.5636C5.91443 20.125 6.81795 20.125 8.62501 20.125H14.375C16.1821 20.125 17.0856 20.125 17.647 19.5636C18.2083 19.0022 18.2083 18.0987 18.2083 16.2917V8.46058C18.2083 8.06886 18.2083 7.873 18.1354 7.69688C18.0624 7.52077 17.9239 7.38228 17.647 7.10529L13.9781 3.43638C13.7011 3.15939 13.5626 3.0209 13.3865 2.94795C13.2103 2.875 13.0145 2.875 12.6228 2.875Z" stroke="white" stroke-width="2"/>
<path d="M8.625 12.4583L14.375 12.4583" stroke="white" stroke-width="2" stroke-linecap="round"/>
<path d="M8.625 16.2917L12.4583 16.2917" stroke="white" stroke-width="2" stroke-linecap="round"/>
<path d="M12.4583 2.875V6.70833C12.4583 7.61186 12.4583 8.06362 12.739 8.34431C13.0197 8.625 13.4715 8.625 14.375 8.625H18.2083" stroke="white" stroke-width="2"/>
</svg>
